<?xml version="1.0" encoding="UTF-8"?>
<svg id="Layer_2" data-name="Layer 2" xmlns="http://www.w3.org/2000/svg" viewBox="0 0 1798.25 1053.75">
  <defs>
    <style>
      .cls-1 {
        fill: #5599c4;
      }

      .cls-2, .cls-3 {
        fill: #4d81c3;
      }

      .cls-3 {
        font-family: Avenir-Medium, Avenir;
        font-size: 250px;
        font-weight: 500;
      }

      .cls-4 {
        fill: #5aa5c4;
      }

      .cls-5 {
        fill: none;
        stroke: #4d81c3;
        stroke-miterlimit: 10;
        stroke-width: 4px;
      }

      .cls-6 {
        fill: #5fb1c5;
      }

      .cls-7 {
        fill: #518dc3;
      }
    </style>
  </defs>
  <g id="Layer_2-2" data-name="Layer 2">
    <g>
      <g>
        <polygon class="cls-2" points="48.36 476.5 48.36 476.5 48.36 328.5 .36 328.5 .36 684.5 48.36 684.5 48.36 521.5 48.36 521.5 48.36 476.5"/>
        <polygon class="cls-2" points="233.36 328.5 233.36 476.5 94.36 476.5 94.36 521.5 233.36 521.5 233.36 684.5 281.36 684.5 281.36 328.5 233.36 328.5"/>
      </g>
      <g>
        <polygon class="cls-6" points="1713.36 328.5 1713.36 621.5 1712.35 621.5 1516.01 328.5 1462.11 328.5 1530.01 431.44 1700.36 684.5 1761.36 684.5 1761.36 328.5 1713.36 328.5"/>
        <polygon class="cls-6" points="1452.36 398.67 1452.36 684.5 1500.36 684.5 1500.36 471.43 1452.36 398.67"/>
      </g>
      <path class="cls-1" d="M895.66,524.09c13.88-1.34,26.47-4.94,37.76-10.81,11.28-5.86,20.83-13.07,28.65-21.62,7.81-8.55,13.8-18.1,17.97-28.66,4.17-10.56,6.25-21.54,6.25-32.94s-1.74-22.54-5.21-34.44c-3.48-11.89-9.63-22.63-18.49-32.18-8.85-9.55-20.92-17.43-36.2-23.63-15.28-6.2-34.73-9.3-58.33-9.3h-129.69v356h50v-157h24.15l-24.16-41.84.28-.16h-.27v-115h65.58c9.71,0,19.34.76,28.88,2.27,9.54,1.51,18.04,4.29,25.5,8.32,7.46,4.04,13.44,9.84,17.95,17.4,4.51,7.57,6.77,17.4,6.77,29.51s-2.26,21.94-6.77,29.51c-4.51,7.57-10.5,13.37-17.95,17.4-7.46,4.03-15.96,6.81-25.5,8.32-9.55,1.51-19.18,2.27-28.88,2.27h-34.44l36.25,62.79,81.08,136.21h63.51l-104.69-162.41Z"/>
      <g>
        <path class="cls-7" d="M490.36,645.97c-7.25-1.59-13.8-4.01-19.65-7.27-11.42-6.36-20.65-14.58-27.71-24.63-7.05-10.05-12.09-21.03-15.11-32.93-3.02-11.89-4.53-23.38-4.53-34.44v-218.19h-48v225.73c0,20.79,3.52,39.64,10.55,56.56,7.03,16.93,16.74,31.59,29.13,43.99,12.38,12.4,26.95,21.96,43.69,28.66,10.06,4.03,20.61,6.84,31.64,8.44v-45.92Z"/>
        <path class="cls-7" d="M602.36,328.5v218.19c0,11.06-1.51,22.55-4.53,34.44-3.02,11.9-8.06,22.88-15.11,32.93-7.05,10.05-16.29,18.27-27.71,24.63-5.84,3.26-12.4,5.68-19.65,7.27v45.92c11.03-1.61,21.57-4.42,31.64-8.44,16.74-6.7,31.3-16.25,43.69-28.66,12.38-12.4,22.1-27.06,29.13-43.99,7.03-16.92,10.55-35.77,10.55-56.56v-225.73h-48Z"/>
      </g>
      <path class="cls-5" d="M1190.78,313.81c.1-10.68,1.81-40.04,22.62-67.87,28.54-38.17,71.15-44.25,79.18-45.25"/>
      <g>
        <ellipse class="cls-4" cx="1196.86" cy="505" rx="186.5" ry="192.5"/>
        <path class="cls-2" d="M1171.04,436.45c.57,87.28-104.65,87.27-104.07,0-.57-87.28,104.65-87.26,104.07,0Z"/>
        <path class="cls-2" d="M1327.14,436.45c.57,87.28-104.65,87.27-104.07,0-.57-87.28,104.65-87.26,104.07,0Z"/>
        <path class="cls-2" d="M1314.13,400.8c1.28,57.23-235.45,57.22-234.14,0-1.28-57.23,235.45-57.22,234.14,0Z"/>
        <path class="cls-2" d="M1314.13,473.87c1.28,57.23-235.45,57.22-234.14,0-1.28-57.23,235.45-57.22,234.14,0Z"/>
      </g>
      <ellipse class="cls-4" cx="1299.36" cy="195" rx="17" ry="17.5"/>
      <text class="cls-3" transform="translate(1386 951.5)"><tspan x="0" y="0">Lab</tspan></text>
    </g>
  </g>
</svg>
